Coordinates
version=1
nRows=8
nColumns=40
inDegrees=yes

Units are S.I. units (second, meters, Newtons, ...)
If the header above contains a line with 'inDegrees', this indicates whether rotational values are in degrees (yes) or radians (no).

endheader
time	pelvis_tilt	pelvis_list	pelvis_rotation	pelvis_tx	pelvis_ty	pelvis_tz	hip_flexion_r	hip_adduction_r	hip_rotation_r	knee_angle_r	knee_angle_r_beta	ankle_angle_r	subtalar_angle_r	mtp_angle_r	hip_flexion_l	hip_adduction_l	hip_rotation_l	knee_angle_l	knee_angle_l_beta	ankle_angle_l	subtalar_angle_l	mtp_angle_l	lumbar_extension	lumbar_bending	lumbar_rotation	arm_flex_r	arm_add_r	arm_rot_r	elbow_flex_r	pro_sup_r	wrist_flex_r	wrist_dev_r	arm_flex_l	arm_add_l	arm_rot_l	elbow_flex_l	pro_sup_l	wrist_flex_l	wrist_dev_l
      2.48000002	     25.08670369	      4.61772104	   -168.87557336	     -0.49921201	      0.95945256	      0.56042476	     17.56037657	     15.50295206	     15.15725502	     30.34169578	      0.52956249	     -9.36842185	      0.00000000	      0.00000000	     43.54898229	      4.95591396	     13.50770692	     24.63295035	      0.42992609	      1.73665859	      0.00000000	      0.00000000	      7.08128418	     -3.88838145	      3.35282882	     27.93497683	     18.27493942	     71.38387164	     99.37141400	     44.60380406	      0.00000000	      0.00000000	     32.82501643	     13.45246026	     68.07231819	    103.41962601	     41.93056132	      0.00000000	      0.00000000
      2.49000001	     25.22614419	      4.14949510	   -169.83940145	     -0.50812415	      0.96129123	      0.56034002	     19.09251237	     14.47533743	     11.20183667	     33.59351827	      0.58631750	     -7.70320437	      0.00000000	      0.00000000	     42.70958465	      4.73849456	     13.27297810	     24.19303391	      0.42224810	      2.20343003	      0.00000000	      0.00000000	      7.08566235	     -4.09807838	      3.98677393	     28.08398565	     18.34057545	     71.45524382	     99.25369346	     44.59606671	      0.00000000	      0.00000000	     32.69586549	     13.35261682	     67.84798164	    103.63130490	     41.97533368	      0.00000000	      0.00000000
      2.50000000	     25.33197248	      3.65013797	   -170.81269631	     -0.51720627	      0.96298010	      0.56028842	     20.56788722	     13.30369430	      7.87462919	     36.83731172	      0.64293238	     -5.99709785	      0.00000000	      0.00000000	     41.81078242	      4.54591235	     12.96377236	     23.70936535	      0.41380649	      2.60254835	      0.00000000	      0.00000000	      7.08688885	     -4.31763698	      4.57509941	     28.17350191	     18.44880580	     71.48534909	     99.13448439	     44.58934542	      0.00000000	      0.00000000	     32.57447081	     13.22681308	     67.65446460	    103.83013919	     42.01624247	      0.00000000	      0.00000000
      2.50999999	     25.47959676	      3.16080217	   -171.77763374	     -0.52630398	      0.96442103	      0.56050569	     22.14760463	     12.04221817	      5.06080352	     40.11343818	      0.70011157	     -4.50195380	      0.00000000	      0.00000000	     40.94261357	      4.36712182	     12.45118496	     23.15582138	      0.40414532	      2.80408796	      0.00000000	      0.00000000	      7.18319685	     -4.47130430	      5.04168571	     28.15434196	     18.54392615	     71.50240611	     98.98965837	     44.58325401	      0.00000000	      0.00000000	     32.40195987	     13.05219669	     67.49930896	    104.04023976	     42.05522900	      0.00000000	      0.00000000
      2.51999998	     25.49943555	      2.63482056	   -172.66137829	     -0.53544941	      0.96578857	      0.56103841	     23.62392167	     10.62782552	      2.63303109	     43.28143783	      0.75540360	     -3.61316239	      0.00000000	      0.00000000	     39.95779294	      4.28149445	     11.83872574	     22.66361290	      0.39555467	      3.28668333	      0.00000000	      0.00000000	      7.12131511	     -4.64373974	      5.40653262	     28.17933732	     18.62861883	     71.47087857	     98.90362023	     44.58088612	      0.00000000	      0.00000000	     32.34415849	     12.98688794	     67.38209562	    104.14240391	     42.07661143	      0.00000000	      0.00000000
      2.52999997	     25.56690678	      2.10669500	   -173.52195122	     -0.54455840	      0.96696362	      0.56174113	     25.19566552	      9.14892063	      0.68572138	     46.35766751	      0.80909393	     -2.80012834	      0.00000000	      0.00000000	     38.99798675	      4.23224609	     11.08313943	     22.07682489	      0.38531328	      3.62856720	      0.00000000	      0.00000000	      7.14512696	     -4.80241680	      5.67108789	     28.12450991	     18.70025599	     71.43363190	     98.83185279	     44.57920568	      0.00000000	      0.00000000	     32.26984526	     12.92010969	     67.32831837	    104.20986890	     42.08888013	      0.00000000	      0.00000000
      2.53999996	     25.68551254	      1.53730787	   -174.33102142	     -0.55370840	      0.96796160	      0.56264934	     26.82823939	      7.61364506	     -0.73284672	     49.25455508	      0.85965416	     -1.89073618	      0.00000000	      0.00000000	     38.05384904	      4.28400568	     10.24384046	     21.38382923	      0.37321823	      3.81339390	      0.00000000	      0.00000000	      7.27183482	     -4.98994607	      5.81837104	     28.00838157	     18.74462985	     71.37386638	     98.76434959	     44.57905493	      0.00000000	      0.00000000	     32.20871984	     12.81079205	     67.32378993	    104.23531760	     42.09124865	      0.00000000	      0.00000000
      2.54999995	     25.77408999	      1.02285824	   -175.08914479	     -0.56284651	      0.96885075	      0.56356451	     28.49445883	      6.22721155	     -1.72004918	     51.92718626	      0.90630037	     -0.95596444	      0.00000000	      0.00000000	     37.08654240	      4.34066389	      9.49311713	     20.67522020	      0.36085067	      3.98158166	      0.00000000	      0.00000000	      7.35999320	     -5.12049121	      5.86035704	     27.91587015	     18.84537543	     71.17579648	     98.64082671	     44.57820730	      0.00000000	      0.00000000	     32.21953880	     12.75598803	     67.39810461	    104.24148128	     42.08543604	      0.00000000	      0.00000000
